# xmcd
#
# Track frame offsets:
#	150
#	14652
#	28992
#	44575
#	61650
#	77782
#	94017
#	107442
#	121637
#	137597
#	154350
#	171182
#
# Disc length: 2460 seconds
#
# Revision: 1
# Processed by: cddbd v1.5.2PL0 Copyright (c) Steve Scherf et al.
# Submitted via: audiograbber 1.83.01
#
DISCID=97099a0c
DTITLE=Michael Heck - Atlantis
DYEAR=1999
DGENRE=Schlager
TTITLE0=Michael Heck - Atlantis
TTITLE1=Michael Heck - Anna-Lena
TTITLE2=Michael Heck - Immer nur träumen
TTITLE3=Michael Heck - Lorraine
TTITLE4=Michael Heck - Wilde Schwäne
TTITLE5=Michael Heck - Geh am Glück nicht vorbei
TTITLE6=Michael Heck - Blue Moon River
TTITLE7=Michael Heck - Angel City
TTITLE8=Michael Heck - Jenny´s Lovesong
TTITLE9=Michael Heck - Wölfe unterm Nebelmond
TTITLE10=Michael Heck - Ocean Blue
TTITLE11=Michael Heck - Kleines Lied vom Lullabye
EXTD=
EXTT0=
EXTT1=
EXTT2=
EXTT3=
EXTT4=
EXTT5=
EXTT6=
EXTT7=
EXTT8=
EXTT9=
EXTT10=
EXTT11=
PLAYORDER=
